# xmcd
#
# Track frame offsets: 
#        150
#        14620
#        25960
#        35657
#        46222
#        56260
#        68063
#        80364
#        89758
#        101209
#        113783
#        123860
#        136915
#        149017
#        161764
#        173180
#        187005
#        197666
#
# Disc length: 2794 seconds
#
# Revision: 2
# Processed by: cddbd v1.5.2PL0 Copyright (c) Steve Scherf et al.
# Submitted via: ExactAudioCopy v0.95b4
#
DISCID=030ae812
DTITLE=Various Artist - Rawhide - Country Greats [CD02)
DYEAR=2007
DGENRE=Country
TTITLE0=Jeannie C Riley - Harper Valley PTA
TTITLE1=Patsy Cline - Crazy Dreams
TTITLE2=Willie Nelson - Let's Pretend We're Strangers
TTITLE3=Waylon Jennings - Burning Memories
TTITLE4=Johnny Cash  - Get Rhythm
TTITLE5=Gene Autry - Back In The Saddle Again
TTITLE6=Frankie Lane - High Noon
TTITLE7=Dave Dudley - Six Days On The Road
TTITLE8=Bill Monroe and His Bluegrass Boys - Orange Blossem Special
TTITLE9=Hank Williams - Honky Tonkin'
TTITLE10=Leroy Van Dyke - Walk On By
TTITLE11=Roy Acuff and His Crazy Tennesseans - Great Speckle Bird
TTITLE12=The Sons Of The Pioneers - Tumbling Tumbleweeds
TTITLE13=Porter Wagoner - Satisfied Mind
TTITLE14=Kenny Rogers - Me And Bobby McGee
TTITLE15=Jimmie Rogers - My Old Pal
TTITLE16=Freddy Fender - A Man Can Cry
TTITLE17=Bob Wills and Texas Playboys - Take Me Back To Tulsa
EXTD=
EXTT0=
EXTT1=
EXTT2=
EXTT3=
EXTT4=
EXTT5=
EXTT6=
EXTT7=
EXTT8=
EXTT9=
EXTT10=
EXTT11=
EXTT12=
EXTT13=
EXTT14=
EXTT15=
EXTT16=
EXTT17=
PLAYORDER=
